<svg height="512" viewBox="0 0 512 512" width="512" xmlns="http://www.w3.org/2000/svg"><path d="m71.357 460.819-41.085-460.819h451.456l-41.129 460.746-184.875 51.254z" fill="#264de4"/><path d="m405.388 431.408 35.148-393.73h-184.536v435.146z" fill="#2965f1"/><path d="m124.46 208.59 5.065 56.517h126.475v-56.517zm-5.041-57.875h136.581v-56.518h-141.719zm136.581 204.657-.248.066-62.944-16.996-4.023-45.076h-56.736l7.919 88.741 115.772 32.14.26-.073z" fill="#ebebeb"/><path d="m255.805 208.59v56.517h69.595l-6.56 73.299-63.035 17.013v58.8l115.864-32.112.85-9.549 13.28-148.792 1.38-15.176 10.203-114.393h-141.577v56.518h79.639l-5.144 57.875z" fill="#fff"/></svg>