<svg aria-hidden="true" focusable="false" fill="none" height="24" viewBox="0 0 61 65" width="24" xmlns="http://www.w3.org/2000/svg" xmlns:xlink="http://www.w3.org/1999/xlink"><path d="m60.7539 14.3904c-.9396-6.98398-7.0266-12.48783-14.2422-13.554334-1.2174-.180212-5.8298-.836066-16.5144-.836066h-.0798c-10.6876 0-12.9805.655854-14.1979.836066-7.01472 1.036954-13.42075 5.982454-14.974983 13.049134-.74756688 3.4802-.8273468 7.3385-.6884706 10.8777.1979726 5.0755.2363846 10.1421.6973356 15.1969.318668 3.3577.874578 6.6886 1.663558 9.9678 1.47741 6.0563 7.45795 11.0963 13.31736 13.1525 6.2733 2.1443 13.0198 2.5003 19.484 1.0281.7111-.1654 1.4134-.3574 2.1068-.5761 1.5719-.4992 3.4128-1.0576 4.7661-2.0384.0186-.0138.0338-.0316.0445-.052.0108-.0205.0168-.0431.0176-.0662v-4.8982c-.0004-.0216-.0055-.0428-.0151-.0622-.0096-.0193-.0234-.0363-.0404-.0496s-.0368-.0226-.0579-.0273c-.021-.0047-.0429-.0046-.0639.0002-4.1416.9892-8.3856 1.485-12.6437 1.4772-7.3279 0-9.2988-3.4772-9.8631-4.9248-.4537-1.2511-.7418-2.5562-.8569-3.882-.0012-.0222.0029-.0445.0119-.0649.009-.0203.0227-.0383.04-.0524s.0376-.024.0594-.0287c.0218-.0048.0444-.0043.066.0013 4.0725.9824 8.2473 1.4782 12.4368 1.4771 1.0075 0 2.0122 0 3.0198-.0266 4.2135-.1182 8.6546-.3338 12.8002-1.1433.1034-.0207.2069-.0384.2955-.065 6.539-1.2556 12.7618-5.1966 13.3942-15.1762.0236-.3929.0827-4.1153.0827-4.523.0029-1.3856.4462-9.829-.065-15.0167z" fill="currentColor"/><path d="m50.3943 22.237v17.3506h-6.8758v-16.8395c0-3.5452-1.4774-5.3532-4.4825-5.3532-3.3035 0-4.9582 2.1389-4.9582 6.3636v9.2174h-6.8344v-9.2174c0-4.2247-1.6577-6.3636-4.9612-6.3636-2.9873 0-4.4795 1.808-4.4795 5.3532v16.8395h-6.8729v-17.3506c0-3.5452.9052-6.3616 2.7155-8.4493 1.8675-2.0828 4.317-3.1522 7.3575-3.1522 3.5192 0 6.1785 1.353 7.9514 4.0562l1.7108 2.8716 1.7138-2.8716c1.7729-2.7032 4.4322-4.0562 7.9455-4.0562 3.0376 0 5.4871 1.0694 7.3604 3.1522 1.8084 2.0857 2.7116 4.9022 2.7096 8.4493z" fill="#fff"/></svg>